<?xml version="1.0" standalone="no"?><!DOCTYPE svg PUBLIC "-//W3C//DTD SVG 1.1//EN" "http://www.w3.org/Graphics/SVG/1.1/DTD/svg11.dtd"><svg t="1561296603546" class="icon" viewBox="0 0 1024 1024" version="1.1" xmlns="http://www.w3.org/2000/svg" p-id="2580" xmlns:xlink="http://www.w3.org/1999/xlink" width="200" height="200"><defs><style type="text/css"></style></defs><path d="M177.03125 799.83125c0 17.94375 14.5125 32.45625 32.45625 32.45625h581.7375a32.4 32.4 0 0 0 32.45625-32.45625V563.75a323.26875 323.26875 0 1 0-646.65 0v236.1375zM249.9875 563.75a250.3125 250.3125 0 0 1 500.68125 0v195.58125H390.89375v-173.25a10.125 10.125 0 0 0-10.125-10.125h-44.60625a10.125 10.125 0 0 0-10.125 10.125v173.25H249.9875V563.75z m-48.7125-255.9375l40.10625-40.10625a8.15625 8.15625 0 0 0 0-11.475L172.5875 187.4375a8.15625 8.15625 0 0 0-11.475 0l-40.10625 40.10625a8.15625 8.15625 0 0 0 0 11.475l68.79375 68.79375a8.15625 8.15625 0 0 0 11.475 0zM879.875 227.4875l-40.1625-40.10625a8.15625 8.15625 0 0 0-11.475 0L759.5 256.175a8.15625 8.15625 0 0 0 0 11.475l40.1625 40.10625a8.15625 8.15625 0 0 0 11.41875 0l68.85-68.79375a8.15625 8.15625 0 0 0 0-11.475z m-55.2375 669.65625H176.01875a32.4 32.4 0 0 0-32.45625 32.4v24.35625c0 4.5 3.65625 8.1 8.15625 8.1H848.9375c4.5 0 8.1-3.65625 8.1-8.1v-24.35625a32.4 32.4 0 0 0-32.4-32.4zM472.00625 175.5125h56.7c4.5 0 8.1-3.65625 8.1-8.1V70.1A8.15625 8.15625 0 0 0 528.70625 62H471.95a8.15625 8.15625 0 0 0-8.1 8.1v97.3125c0 4.5 3.65625 8.1 8.1 8.1z" p-id="2581"></path></svg>