<?xml version="1.0" standalone="no"?><!DOCTYPE svg PUBLIC "-//W3C//DTD SVG 1.1//EN" "http://www.w3.org/Graphics/SVG/1.1/DTD/svg11.dtd"><svg t="1561295637985" class="icon" viewBox="0 0 1025 1024" version="1.1" xmlns="http://www.w3.org/2000/svg" p-id="1547" xmlns:xlink="http://www.w3.org/1999/xlink" width="200.1953125" height="200"><defs><style type="text/css"></style></defs><path d="M578.73376953 652.1996498S512.02239805 705.67244404 487.82656426 719.70602715a301.96401065 301.96401065 0 0 1-59.452621 26.1660665 250.53058037 250.53058037 0 0 1-47.00904961 10.71529805c-13.48053575 1.48631573-24.54148916 2.4195832-33.52851298 2.86893457a6.56744063 6.56744063 0 0 1-3.11089307 0.62217862h-10.02398818a250.184925 250.184925 0 0 1-65.32875265-8.2265836 165.70689873 165.70689873 0 0 1-53.23083486-24.19583379 113.54759297 113.54759297 0 0 1-49.08297832-96.78333691 95.36615244 95.36615244 0 0 1 15.20881084-50.46559717 134.49427208 134.49427208 0 0 1 37.33071504-38.47137627 180.81201182 180.81201182 0 0 1 51.15690704-23.98844092 172.23977373 172.23977373 0 0 1 56.34172792-6.913096 329.06334463 329.06334463 0 0 1 53.57649024 6.60200625 493.76784463 493.76784463 0 0 1 49.77428731 12.92748839q23.33169756 7.56983935 44.58946552 16.41860244c14.1718456 5.87613076 27.65238222 11.54486953 40.09595362 17.04078017 5.18482178 2.07392871 10.36964355 4.18242305 15.90011982 6.2909165s11.06095254 4.21698867 16.93708417 6.32548302a360.72532177 360.72532177 0 0 0 30.76327442-45.73012677 442.43811036 442.43811036 0 0 0 21.0849416-40.99465635c5.18482178-12.40900664 9.67833369-22.81321494 12.44357139-31.10892977s4.83916641-14.27554248 5.87613164-17.6629588H344.03417862v-30.2793583h129.62054003V340.86839521h-179.74048271v-30.27935829h179.74048271V253.79795762a10.36964355 10.36964355 0 0 1 6.22178526-9.12528545 42.48097207 42.48097207 0 0 1 14.51750097-4.73547042 108.08624795 108.08624795 0 0 1 21.43059609-1.90110146h48.39166846v72.58750224h184.92530362v30.27935831h-184.92530362v69.99509179h146.90327872a0.58761299 0.58761299 0 0 1 0.34565448-0.62217861v0.62217861h-0.34565448a354.3307084 354.3307084 0 0 1-14.86315547 59.31435938 435.80153847 435.80153847 0 0 1-26.2697625 61.80307295 440.50244414 440.50244414 0 0 1-45.62643077 71.30858027 1248.22851943 1248.22851943 0 0 0 297.60876036 93.63787823 449.93881934 449.93881934 0 1 0-39.05898927 69.40747881 1662.59946182 1662.59946182 0 0 1-304.17620097-113.85868272z m-353.25917841-20.18623798c-1.38261885 77.11557979 85.72238349 82.9571458 99.20292011 83.23366904a197.43800713 197.43800713 0 0 0 108.18994395-32.00763164 623.45751592 623.45751592 0 0 0 75.35274081-61.00806797c1.72827422-1.48631573 3.45654756-3.04176182 5.18482178-4.73547041-12.44357227-6.70570224-24.19583378-12.92748838-35.94809707-18.59622715a411.88222881 411.88222881 0 0 0-124.78137275-43.31054267c-100.58553896-10.36964355-126.50964698 52.95431162-127.20095683 76.4242708z m0 0" p-id="1548"></path></svg>