<?xml version="1.0" standalone="no"?><!DOCTYPE svg PUBLIC "-//W3C//DTD SVG 1.1//EN" "http://www.w3.org/Graphics/SVG/1.1/DTD/svg11.dtd"><svg t="1561295496149" class="icon" viewBox="0 0 1024 1024" version="1.1" xmlns="http://www.w3.org/2000/svg" p-id="2344" xmlns:xlink="http://www.w3.org/1999/xlink" width="200" height="200"><defs><style type="text/css"></style></defs><path d="M764.21428531 537.39285687c-0.42857156-73.07142844 32.67857156-128.14285687 99.53571469-168.74999999-37.39285687-53.57142844-93.96428531-83.03571469-168.53571469-88.71428532-70.60714312-5.57142844-147.85714312 41.14285687-176.14285687 41.14285688-29.89285687 0-98.25-39.21428531-152.03571375-39.21428531C256.03571469 283.57142844 138.07142844 370.35714312 138.07142844 546.92857156c0 52.17857156 9.53571469 106.07142844 28.60714312 161.57142844 25.5 73.07142844 117.42857156 252.10714312 213.32142844 249.21428531 50.14285687-1.17857156 85.60714312-35.57142844 150.85714313-35.57142843 63.32142844 0 96.10714312 35.57142844 152.03571375 35.57142843 96.75-1.39285687 179.89285688-164.14285688 204.10714312-237.42857062-129.75-61.17857156-122.78571469-179.14285688-122.78571469-182.89285781z m-11.35714218 286.07142844c-15.32142844 21.32142844-30.75 38.14285687-44.89285782 48.96428625-11.25 8.57142844-19.92857156 12.21428531-25.71428531 12.42857157-9.64285687-0.10714313-18.96428531-2.46428531-37.17857156-9.42857157-1.28571469-0.53571469-2.67857156-1.07142844-4.5-1.71428625l-4.71428531-1.82142843c-18.64285687-7.17857156-29.78571469-11.03571469-44.03571469-14.78571375-19.92857156-5.14285687-39.75-7.92857156-60.96428531-7.92857157-21.64285687 0-42 2.67857156-62.25 7.71428532-14.89285687 3.75-27.42857156 7.92857156-45.75 14.78571468-0.75 0.32142844-8.67857156 3.32142844-10.92857157 4.17857157-3.75 1.39285687-6.64285688 2.46428531-9.32142843 3.42857156-11.14285687 3.85714312-18.21428531 5.46428531-24.53571469 5.57142844-0.75 0-1.39285687-0.10714313-1.92857156-0.21428625-1.17857156-0.21428531-2.67857156-0.64285687-4.39285688-1.39285688-4.82142844-1.92857156-10.60714312-5.46428531-17.14285687-10.5-15-11.67857156-31.5-30-48.32142844-53.46428531-29.46428531-41.35714313-57.32142844-96.21428531-70.71428625-134.67857156-16.5-48-24.64285687-93.96428531-24.64285688-137.78571469 0-64.5 19.07142844-113.57142844 51.85714313-146.89285688 28.17857156-28.5 66.10714312-44.46428531 104.78571375-45.32142843 6.32142844 0.10714313 15.53571469 1.60714312 27.21428625 4.82142843 9.21428531 2.46428531 19.28571469 5.78571469 32.89285687 10.60714313 4.07142844 1.5 18.10714313 6.53571469 19.82142844 7.17857062 8.25 3 14.46428531 5.14285687 20.57142844 7.07142938 19.5 6.21428531 34.60714313 9.64285687 51 9.64285687 16.60714313 0 30.85714312-3.53571469 51.10714312-10.5 7.60714313-2.57142844 35.25-12.85714313 40.17857157-14.57142843 27.42857156-9.75 47.67857156-15 65.14285687-16.28571469 5.14285687-0.42857156 9.75-0.42857156 14.14285688-0.10714313 24.32142844 1.92857156 45.10714313 6.75 62.78571468 14.78571469-40.28571469 46.5-61.07142844 103.39285687-60.96428625 169.71428531-0.32142844 15.75 0.96428531 33.96428531 5.46428625 55.5 6.85714313 32.67857156 19.92857156 65.03571469 40.60714313 95.35714313 15.75 23.03571469 35.25 43.82142844 58.60714219 61.92857156-12.32142844 25.39285687-27.42857156 51.64285687-43.28571375 73.71428531z m-101.25000001-612.85714218c54.32142844-64.5 49.39285687-123.21428531 47.78571375-144.32142844-48 2.78571469-103.5 32.67857156-135.10714218 69.42857062-34.82142844 39.42857156-55.28571469 88.17857156-50.89285782 143.14285782 51.85714313 3.96428531 99.21428531-22.71428531 138.21428626-68.25z" p-id="2345"></path></svg>