<?xml version="1.0" standalone="no"?><!DOCTYPE svg PUBLIC "-//W3C//DTD SVG 1.1//EN" "http://www.w3.org/Graphics/SVG/1.1/DTD/svg11.dtd"><svg t="1561294457663" class="icon" viewBox="0 0 1024 1024" version="1.1" xmlns="http://www.w3.org/2000/svg" p-id="3059" xmlns:xlink="http://www.w3.org/1999/xlink" width="200" height="200"><defs><style type="text/css"></style></defs><path d="M512 74.846a39.74 39.74 0 0 1 28.101 11.64l331.177 331.177c15.52 15.52 15.52 40.682 0 56.203s-40.683 15.521-56.203 0L512 170.79 208.924 473.866c-15.52 15.521-40.683 15.521-56.202 0-15.52-15.52-15.52-40.682 0-56.203L483.899 86.486A39.742 39.742 0 0 1 512 74.846z" p-id="3060"></path><path d="M512 74.846c21.948 0 39.741 17.794 39.741 39.741v794.826c0 21.947-17.793 39.741-39.741 39.741s-39.741-17.794-39.741-39.741V114.587c0-21.947 17.793-39.741 39.741-39.741z" p-id="3061"></path></svg>