<?xml version="1.0" standalone="no"?><!DOCTYPE svg PUBLIC "-//W3C//DTD SVG 1.1//EN" "http://www.w3.org/Graphics/SVG/1.1/DTD/svg11.dtd"><svg t="1561294467854" class="icon" viewBox="0 0 1024 1024" version="1.1" xmlns="http://www.w3.org/2000/svg" p-id="3285" xmlns:xlink="http://www.w3.org/1999/xlink" width="200" height="200"><defs><style type="text/css"></style></defs><path d="M74.846 512a39.74 39.74 0 0 1 11.64-28.101l331.177-331.177c15.52-15.52 40.682-15.52 56.203 0s15.521 40.683 0 56.203L170.79 512l303.075 303.076c15.521 15.52 15.521 40.683 0 56.202-15.52 15.52-40.682 15.52-56.203 0L86.486 540.101A39.742 39.742 0 0 1 74.846 512z" p-id="3286"></path><path d="M74.846 512c0-21.948 17.794-39.741 39.741-39.741h794.826c21.947 0 39.741 17.793 39.741 39.741s-17.794 39.741-39.741 39.741H114.587c-21.947 0-39.741-17.793-39.741-39.741z" p-id="3287"></path></svg>