<?xml version="1.0" standalone="no"?><!DOCTYPE svg PUBLIC "-//W3C//DTD SVG 1.1//EN" "http://www.w3.org/Graphics/SVG/1.1/DTD/svg11.dtd"><svg t="1561296561789" class="icon" viewBox="0 0 1024 1024" version="1.1" xmlns="http://www.w3.org/2000/svg" p-id="1878" xmlns:xlink="http://www.w3.org/1999/xlink" width="200" height="200"><defs><style type="text/css"></style></defs><path d="M512.6 446.5c34.4 0 66.7 13.4 91.1 37.7 24.3 24.3 37.7 56.7 37.7 91.1s-13.4 66.7-37.7 91C579.3 690.6 547 704 512.6 704s-66.7-13.4-91.1-37.7c-24.3-24.3-37.7-56.7-37.7-91.1s13.4-66.7 37.7-91.1C445.9 459.9 478.2 446.5 512.6 446.5M512.6 382.5c-106.5 0-192.8 86.3-192.8 192.8S406.1 768 512.6 768s192.8-86.3 192.8-192.8S619.1 382.5 512.6 382.5L512.6 382.5zM896 256 768.6 256 641.2 128l-257.9 0.2L255.6 256 128 256c-35.3 0-64 28.7-64 64l0 512c0 35.3 28.7 64 64 64l768 0c35.3 0 64-28.7 64-64L960 320C960 284.7 931.3 256 896 256zM678.1 256l-332 0 64-64 204 0L678.1 256zM896 832 896 832 128 832l0 0L128 320l0 0 768 0 0 0L896 832z" p-id="1879"></path></svg>