<?xml version="1.0" standalone="no"?><!DOCTYPE svg PUBLIC "-//W3C//DTD SVG 1.1//EN" "http://www.w3.org/Graphics/SVG/1.1/DTD/svg11.dtd"><svg t="1561294672537" class="icon" viewBox="0 0 1024 1024" version="1.1" xmlns="http://www.w3.org/2000/svg" p-id="2972" xmlns:xlink="http://www.w3.org/1999/xlink" width="200" height="200"><defs><style type="text/css"></style></defs><path d="M980.09 184.178c-16.1-15.1-41.4-14.4-56.5 1.8l-533 567.5-291.2-286.9c-15.7-15.5-41.1-15.3-56.6 0.4-15.5 15.7-15.3 41.1 0.4 56.5l320.4 315.6c0.1 0.1 0.3 0.2 0.4 0.3 0.1 0.1 0.2 0.3 0.3 0.4 2.5 2.4 5.6 3.8 8.5 5.4 1.4 0.8 2.7 2.1 4.2 2.7 4.7 1.8 9.7 2.8 14.7 2.8 5.2 0 10.5-1 15.3-3.1 1.6-0.7 2.9-2.1 4.4-3 3-1.8 6.1-3.2 8.7-5.8 0.1-0.1 0.2-0.3 0.3-0.4 0.1-0.1 0.2-0.2 0.4-0.3l561.1-597.3c15.1-16.2 14.3-41.5-1.8-56.6z" p-id="2973"></path></svg>