<?xml version="1.0" standalone="no"?><!DOCTYPE svg PUBLIC "-//W3C//DTD SVG 1.1//EN" "http://www.w3.org/Graphics/SVG/1.1/DTD/svg11.dtd"><svg t="1561296569438" class="icon" viewBox="0 0 1505 1024" version="1.1" xmlns="http://www.w3.org/2000/svg" p-id="1994" xmlns:xlink="http://www.w3.org/1999/xlink" width="293.9453125" height="200"><defs><style type="text/css"></style></defs><path d="M1192.9767318 394.99294156C1151.75320305 188.02823562 975.33908524 32 760.63790805 32 590.0967318 32 442.99084961 130.99294156 369.46614367 274.99294156 192.99555555 293.00705844 54.75555555 445.98588219 54.75555555 632 54.75555555 829.98588219 213.60731994 992 407.6967318 992h764.72470594C1334.15320305 992 1466.52026149 857.03529406 1466.52026149 692.02823562c0-159.02117625-120.56470594-288-273.54352969-297.03529406zM1175.6967318 879.05882375H404.87320305C274.42614367 879.05882375 167.6967318 768.94117625 167.6967318 634.37176437c0-134.62588219 106.72941187-244.74352969 237.17647125-244.74352874h41.50588219C484.94849711 248.96 609.46614368 144.94117625 760.63790805 144.94117625c180.81882375 0 326.1176475 149.87294156 326.1176475 336.45176531V512h88.94117625c97.80705844 0 177.8823525 82.61647031 177.88235344 183.52941187S1273.50379118 879.05882375 1175.6967318 879.05882375z" p-id="1995"></path></svg>