<?xml version="1.0" standalone="no"?><!DOCTYPE svg PUBLIC "-//W3C//DTD SVG 1.1//EN" "http://www.w3.org/Graphics/SVG/1.1/DTD/svg11.dtd"><svg t="1561295490586" class="icon" viewBox="0 0 1024 1024" version="1.1" xmlns="http://www.w3.org/2000/svg" p-id="2228" xmlns:xlink="http://www.w3.org/1999/xlink" width="200" height="200"><defs><style type="text/css"></style></defs><path d="M971.314286 557.942857L846.857143 134.171429v-0.114286c-8.685714-26.171429-29.371429-41.714286-55.2-41.714286-26.742857 0-48.571429 15.428571-56.8 40.228572l-81.6 243.428571H371.2l-81.6-243.428571c-8.228571-24.8-30.057143-40.228571-56.8-40.228572-26.4 0-48.571429 16.914286-55.314286 41.828572L53.142857 557.942857c-5.028571 16.8 1.371429 35.885714 15.428572 46.514286l421.142857 315.885714c2.971429 4.114286 7.085714 7.2 11.885714 8.914286l9.828571 7.314286 9.714286-7.314286c5.6-1.942857 10.285714-5.371429 13.6-10.171429l421.028572-314.742857c14.171429-10.514286 20.571429-29.6 15.542857-46.4zM785.942857 147.885714c1.142857-2.057143 3.314286-2.171429 4-2.171428 1.257143 0 2.857143 0.342857 3.885714 3.428571L861.714286 377.485714H709.142857l76.8-229.6z m-557.028571 1.142857c1.028571-2.971429 2.628571-3.314286 3.885714-3.314285 3.085714 0 3.314286 0.114286 3.885714 1.942857l76.914286 229.942857H162.857143l66.057143-228.571429zM108.342857 565.371429l32.228572-111.2 231.314285 308.8-263.542857-197.6z m84.457143-133.028572h139.542857l103.771429 324.914286-243.314286-324.914286zM513.028571 813.714286L390.514286 432.342857H635.428571L513.028571 813.714286z m180.457143-381.371429h136.571429L589.714286 753.257143l103.771428-320.914286z m-46.514285 335.885714l236.914285-316.228571 33.714286 113.371429-270.628571 202.857142z" p-id="2229"></path></svg>