<?xml version="1.0" standalone="no"?><!DOCTYPE svg PUBLIC "-//W3C//DTD SVG 1.1//EN" "http://www.w3.org/Graphics/SVG/1.1/DTD/svg11.dtd"><svg t="1561296597300" class="icon" viewBox="0 0 1024 1024" version="1.1" xmlns="http://www.w3.org/2000/svg" p-id="2464" xmlns:xlink="http://www.w3.org/1999/xlink" width="200" height="200"><defs><style type="text/css"></style></defs><path d="M775.6736 847.9808c-21.408 23.37493333-46.42133333 34.73493333-76.24106667 34.73493333H414.13333333c-34.95253333 0-63.35146667-29.70986667-63.35146666-66.192V465.36c30.14613333-31.89333333 110.86506667-126.37546667 156.84906666-267.60533333 7.20853333-22.1728 23.26506667-59.2 50.46293334-56.36053334 21.18933333 2.07466667 43.3632 26.10453333 46.64 50.24426667 1.96586667 18.0224-15.4016 123.20746667-43.25333334 178.80426667l-24.3584 48.60586666h257.2288c34.95253333 0 63.35146667 29.7088 63.46026667 67.50186667 2.84053333 72.63573333-6.6624 279.2928-82.1376 361.4304zM282.07786667 816.416c0 15.29173333-25.3408 33.09546667-58.1088 33.09546667-32.768 0-58.1088-17.80373333-58.1088-33.09546667V485.23946667c0-15.29173333 25.3408-33.09546667 58.1088-33.09546667 32.768 0 58.1088 17.80373333 58.1088 33.09546667v331.17546666z m639.19466666-331.17546667c0-73.07306667-56.90666667-132.49173333-126.8128-132.49173333h-157.504c20.97066667-63.68 34.07786667-143.4144 30.47466667-170.2848-7.53706667-55.05066667-52.976-102.01706667-103.43893333-106.93333333-24.13866667-2.29333333-84.432 2.73066667-116.4352 101.03466666-40.52266667 124.51946667-110.75626667 208.95146667-137.5168 238.00533334-21.84533333-17.80373333-52.10026667-28.6176-86.06933334-28.6176-68.15786667 0-121.57013333 43.69066667-121.57013333 99.39626666v331.17546667c0 55.7056 53.41226667 99.39626667 121.56906667 99.39626667 32.98666667 0 62.368-10.37653333 84.10453333-27.30666667 22.61013333 36.26346667 61.60426667 60.40213333 106.05866667 60.40213333h285.30133333c47.29493333 0 88.36373333-18.56853333 122.00533333-55.05066666 109.44533333-119.16586667 100.26986667-398.24 99.8336-408.72533334z" fill="" p-id="2465"></path></svg>