<?xml version="1.0" standalone="no"?><!DOCTYPE svg PUBLIC "-//W3C//DTD SVG 1.1//EN" "http://www.w3.org/Graphics/SVG/1.1/DTD/svg11.dtd"><svg t="1561295471107" class="icon" viewBox="0 0 1024 1024" version="1.1" xmlns="http://www.w3.org/2000/svg" p-id="1880" xmlns:xlink="http://www.w3.org/1999/xlink" width="200" height="200"><defs><style type="text/css"></style></defs><path d="M903.23626667 664.82631111c-6.04273778-83.20568889-61.87463111-152.91392-94.14883556-188.96896 4.47943111-10.48917333 15.38161778-71.20440889-26.71502222-112.63089778 0.06712889-0.99441778 0.06712889-1.97973333 0.06712889-2.94343111 0-163.42243555-116.31957333-281.05045333-262.27256889-281.58520889-145.97575111 0.53475555-262.29077333 118.16391111-262.29077334 281.58520889 0 0.96369778-0.01365333 1.94901333 0.0568889 2.94343111-42.09777778 41.42648889-31.17511111 102.14172445-26.71616 112.63089778-32.25258667 36.05504-88.09244445 105.76327111-94.14542223 188.97009777-1.09226667 21.87264 2.29034667 53.73496889 12.97521778 67.89461334 13.01959111 17.26805333 48.75605333-3.46680889 74.31281778-58.63651556 7.11111111 25.55904 23.52128 64.57685333 60.65607111 114.10090667-62.14542222 14.1824-79.87313778 75.47904-58.96533334 108.98432 14.7456 23.61002667 48.50346667 43.02848 106.68373334 43.02848 103.51388445 0 149.22638222-27.81866667 169.62787556-47.19160889 4.15857778-4.22570667 10.15694222-6.26346667 17.80622222-6.28053333 7.62311111 0.01706667 13.63399111 2.05482667 17.77777778 6.28053333 20.40490667 19.37180445 66.12764445 47.19160889 169.61649777 47.19160889 58.20074667 0 91.93699555-19.41845333 106.68259556-43.02848 20.91235555-33.50528 3.19032889-94.80305778-58.94030223-108.98432 37.13592889-49.52519111 53.55064889-88.54186667 60.65607112-114.10090667 25.56359111 55.16970667 61.29322667 75.90343111 74.32419555 58.63651556 10.67349333-14.15964445 14.06065778-46.02197333 12.95018667-67.89461334z" p-id="1881"></path></svg>