<?xml version="1.0" standalone="no"?><!DOCTYPE svg PUBLIC "-//W3C//DTD SVG 1.1//EN" "http://www.w3.org/Graphics/SVG/1.1/DTD/svg11.dtd"><svg t="1561294695959" class="icon" viewBox="0 0 1024 1024" version="1.1" xmlns="http://www.w3.org/2000/svg" p-id="3420" xmlns:xlink="http://www.w3.org/1999/xlink" width="200" height="200"><defs><style type="text/css"></style></defs><path d="M978.413 820.54L571.125 114.994c-12.355-21.322-34.648-34.162-59.36-34.162-2.424 0-5.088 0-7.51 0.484-21.322 2.18-41.433 15.991-53.547 37.07L43.418 823.933c-13.81 23.745-12.114 52.336 4.119 74.868 12.6 17.201 34.647 27.621 59.118 27.621h814.577c27.379 0 51.365-15.75 62.754-40.946 8.48-19.626 6.541-43.855-5.573-64.935z m-52.091 40.464c-1.212 1.937-2.908 2.907-5.089 2.907H102.537c-2.181 0-3.877-0.97-5.089-2.907-0.968-1.939-0.968-3.877 0-5.815l409.47-708.94c0.968-1.938 2.664-2.908 4.846-2.908 2.422 0 4.119 0.968 5.088 2.908l409.47 708.94c0.968 1.938 0.968 3.876 0 5.815z" p-id="3421"></path><path d="M543.019 327.24v313.522c0 15.264-13.811 27.863-31.255 27.863-17.203 0-31.256-12.6-31.256-27.863V327.239c0-15.507 14.054-27.862 31.256-27.862 17.445 0 31.255 12.355 31.255 27.862zM549.32 775.717c0 20.836-16.719 37.798-37.556 37.798-20.838 0-37.797-16.96-37.797-37.798 0-20.836 16.959-37.797 37.797-37.797 20.837 0 37.555 16.961 37.555 37.797z" p-id="3422"></path></svg>