<?xml version="1.0" standalone="no"?><!DOCTYPE svg PUBLIC "-//W3C//DTD SVG 1.1//EN" "http://www.w3.org/Graphics/SVG/1.1/DTD/svg11.dtd"><svg t="1561296613949" class="icon" viewBox="0 0 1024 1024" version="1.1" xmlns="http://www.w3.org/2000/svg" p-id="2818" xmlns:xlink="http://www.w3.org/1999/xlink" width="200" height="200"><defs><style type="text/css"></style></defs><path d="M946.67857156 122.85714312l-45.42857156-45.42857156c-1.71428531-1.71428531-3.85714312-2.46428531-6.10714313-2.46428625s-4.39285687 0.85714313-6.10714218 2.46428625l-81.53571469 81.53571375a213.50357156 213.50357156 0 0 0-120.10714313-36.75c-54.85714313 0-109.71428531 20.89285687-151.60714218 62.78571469L426.60714313 294.17857156a8.60357156 8.60357156 0 0 0 0 12.10714313L717.71428531 597.39285687c1.71428531 1.71428531 3.85714312 2.46428531 6.10714313 2.46428625 2.14285688 0 4.39285687-0.85714313 6.10714312-2.46428625l109.17857156-109.17857156c73.82142844-73.92857156 82.5-188.25 26.03571376-271.60714219l81.53571468-81.53571468c3.32142844-3.42857156 3.32142844-8.89285687 0-12.21428532zM787.46428531 436.67857156l-63.64285687 63.64285688-200.14285688-200.14285688 63.64285688-63.64285687c26.67857156-26.67857156 62.25-41.46428531 100.07142844-41.46428625 37.82142844 0 73.28571469 14.67857156 100.07142843 41.46428625 26.67857156 26.67857156 41.46428531 62.25 41.46428625 100.07142844 0 37.82142844-14.78571469 73.28571469-41.46428625 100.07142843z m-203.78571375 112.5a8.60357156 8.60357156 0 0 0-12.10714312 0L500.21428531 620.53571469 403.46428531 523.78571469l71.46428625-71.46428625c3.32142844-3.32142844 3.32142844-8.78571469 0-12.10714313L435.92857156 401.21428531a8.60357156 8.60357156 0 0 0-12.10714312 0L352.35714312 472.67857156l-46.07142843-46.07142843a8.41071469 8.41071469 0 0 0-6.10714313-2.46428625c-2.14285688 0-4.39285687 0.85714313-6.10714312 2.46428625L185 535.78571469c-73.82142844 73.92857156-82.5 188.25-26.03571469 271.60714219l-81.53571375 81.53571468a8.60357156 8.60357156 0 0 0 0 12.10714313l45.42857157 45.42857062c1.71428531 1.71428531 3.85714312 2.46428531 6.10714218 2.46428625s4.39285687-0.85714313 6.10714313-2.46428625l81.53571469-81.53571375c36.10714313 24.53571469 78.10714312 36.75 120.10714218 36.75 54.85714313 0 109.71428531-20.89285687 151.60714313-62.78571468l109.17857156-109.17857157c3.32142844-3.32142844 3.32142844-8.78571469 0-12.10714218l-46.07142844-46.07142844 71.46428531-71.46428625c3.32142844-3.32142844 3.32142844-8.78571469 0-12.10714313l-39.21428531-38.78571375zM436.67857156 787.46428531a140.7 140.7 0 0 1-100.07142843 41.46428625c-37.82142844 0-73.28571469-14.67857156-100.07142844-41.46428625a140.7 140.7 0 0 1-41.46428625-100.07142843c0-37.82142844 14.67857156-73.28571469 41.46428625-100.07142844l63.64285687-63.64285688 200.14285688 200.14285688-63.64285688 63.64285687z" p-id="2819"></path></svg>