<?xml version="1.0" standalone="no"?><!DOCTYPE svg PUBLIC "-//W3C//DTD SVG 1.1//EN" "http://www.w3.org/Graphics/SVG/1.1/DTD/svg11.dtd"><svg t="1562293205365" class="icon" viewBox="0 0 1024 1024" version="1.1" xmlns="http://www.w3.org/2000/svg" p-id="2288" xmlns:xlink="http://www.w3.org/1999/xlink" width="200" height="200"><defs><style type="text/css"></style></defs><path d="M830 194C653 17 368 17 194 194c-177 177-177 462 0 636 177 177 462 177 636 0s177-459 0-636z m-42 594c-153 153-399 153-552 0-153-153-153-399 0-552 153-153 399-153 552 0 153 153 153 399 0 552z" fill="#52c41a" p-id="2289"></path><path d="M806 311c-12-12-30-12-42 0L425 647 260 482c-12-12-30-12-42 0-12 12-12 30 0 42l186 186c12 12 30 12 42 0l360-360c12-9 12-27 0-39z" fill="#52c41a" p-id="2290"></path></svg>