<?xml version="1.0" standalone="no"?><!DOCTYPE svg PUBLIC "-//W3C//DTD SVG 1.1//EN" "http://www.w3.org/Graphics/SVG/1.1/DTD/svg11.dtd"><svg t="1562293215852" class="icon" viewBox="0 0 1024 1024" version="1.1" xmlns="http://www.w3.org/2000/svg" p-id="2419" xmlns:xlink="http://www.w3.org/1999/xlink" width="200" height="200"><defs><style type="text/css"></style></defs><path d="M510.00000031 62C261.99999969 62 62 264.00000031 62 512s199.99999969 450 448.00000031 450S957.99999969 759.99999969 957.99999969 512 758 62 510.00000031 62z m0 840C296 902 122 728 122 512S296 122 510.00000031 122 897.99999969 296 897.99999969 512s-174 390-387.99999938 390z" fill="#f5222d" p-id="2420"></path><path d="M681.99999969 342.00000031c-12-12-30-12-42 0L512 470l-127.99999969-127.99999969c-12-12-30-12-42 0-12 12-12 30 0 42l127.99999969 127.99999969-127.99999969 127.99999969c-12 12-12 30 0 42 6 6 13.99999969 7.99999969 21.99999938 8.00000062s16.00000031-1.99999969 22.00000031-8.00000062l127.99999969-127.99999969 128.00000062 127.99999969c6 6 13.99999969 7.99999969 21.99999938 8.00000062s16.00000031-1.99999969 22.00000031-8.00000062c12-12 12-30 0-42L554 512l127.99999969-127.99999969c12-12 12-30 0-42z" fill="#f5222d" p-id="2421"></path></svg>