<?xml version="1.0" standalone="no"?><!DOCTYPE svg PUBLIC "-//W3C//DTD SVG 1.1//EN" "http://www.w3.org/Graphics/SVG/1.1/DTD/svg11.dtd"><svg t="1562829466279" class="icon" viewBox="0 0 1024 1024" version="1.1" xmlns="http://www.w3.org/2000/svg" p-id="7313" xmlns:xlink="http://www.w3.org/1999/xlink" width="200" height="200"><defs><style type="text/css"></style></defs><path d="M256 768c-6.5536 0-13.1072-2.5088-18.1248-7.4752l-204.8-204.8c-9.984-9.984-9.984-26.2144 0-36.1984l204.8-204.8c9.984-9.984 26.2144-9.984 36.1984 0s9.984 26.2144 0 36.1984l-186.6752 186.6752 186.6752 186.6752c9.984 9.984 9.984 26.2144 0 36.1984-5.0176 5.0176-11.5712 7.4752-18.1248 7.4752z" p-id="7314"></path><path d="M768 768c-6.5536 0-13.1072-2.5088-18.1248-7.4752-9.984-9.984-9.984-26.2144 0-36.1984l186.6752-186.6752-186.6752-186.6752c-9.984-9.984-9.984-26.2144 0-36.1984s26.2144-9.984 36.1984 0l204.8 204.8c9.984 9.984 9.984 26.2144 0 36.1984l-204.8 204.8c-5.0176 5.0176-11.5712 7.4752-18.1248 7.4752z" p-id="7315"></path></svg>