<?xml version="1.0" standalone="no"?><!DOCTYPE svg PUBLIC "-//W3C//DTD SVG 1.1//EN" "http://www.w3.org/Graphics/SVG/1.1/DTD/svg11.dtd"><svg t="1562684126769" class="icon" viewBox="0 0 1024 1024" version="1.1" xmlns="http://www.w3.org/2000/svg" p-id="2561" xmlns:xlink="http://www.w3.org/1999/xlink" width="200" height="200"><defs><style type="text/css"></style></defs><path d="M512 276.23913067c-6.84782578-6.84782578-15.65217422-8.80434756-24.45652178-8.80434845H195.04347823c-19.56521777 0-45 11.73913066-45.00000001 30.32608711v619.23913067c0 19.56521777 25.43478223 44.02173955 45 44.02173955H658.73913067c19.56521777 0 29.34782578-25.43478223 29.34782577-44.02173955V470.91304355c0-8.80434756-0.97826045-16.63043467-7.82608711-23.47826133L512 276.23913067zM608.84782578 472.86956533H482.65217422V346.67391289L608.84782578 472.86956533zM228.30434756 883.73913066V335.91304356h185.86956533v168.26086933c0 19.56521777 17.60869599 37.17391289 37.17391289 37.17391289H619.60869599v342.39130489H228.30434756z m639.78260889-645.65217422L697.86956533 67.86956533c-5.86956533-4.89130401-11.73913066-5.86956533-19.56521777-5.86956533H385.80434756C369.17391289 62 355.47826045 70.80434756 355.47826045 86.45652177v93.91304356c0 16.63043467 12.71739112 29.34782578 29.34782666 29.34782579s29.34782578-13.69565244 29.34782578-29.34782579V120.69565244h205.4347831v165.32608711c0 16.63043467 13.69565244 30.32608711 30.32608623 30.32608623H815.26086934v361.95652178h-40.10869512c-16.63043467 0-29.34782578 12.71739112-29.34782666 29.34782666s13.69565244 29.34782578 29.34782666 29.34782578h74.34782578c16.63043467 0 24.45652178-14.67391289 24.45652178-31.30434756V259.60869599c0-7.82608711-0.97826045-15.65217422-5.86956534-21.52173955zM678.30434756 130.47826045l126.19565244 127.17391377H678.30434756V130.47826045z" fill="" p-id="2562"></path></svg>