<?xml version="1.0" standalone="no"?><!DOCTYPE svg PUBLIC "-//W3C//DTD SVG 1.1//EN" "http://www.w3.org/Graphics/SVG/1.1/DTD/svg11.dtd"><svg t="1561294901869" class="icon" viewBox="0 0 1024 1024" version="1.1" xmlns="http://www.w3.org/2000/svg" p-id="1568" xmlns:xlink="http://www.w3.org/1999/xlink" width="200" height="200"><defs><style type="text/css"></style></defs><path d="M608.42857168 190.57142832h-385.71428584C169.55 190.57142832 126.28571416 233.83571416 126.28571416 287v578.57142832c0 53.16428584 43.26428584 96.42857168 96.42857168 96.42857168h385.71428584c53.16428584 0 96.42857168-43.26428584 96.4285708-96.42857168v-578.57142832C704.85714248 233.83571416 661.59285752 190.57142832 608.42857168 190.57142832zM640.57142832 865.57142832a32.14285752 32.14285752 0 0 1-32.14285664 32.14285752h-385.71428584a32.14285752 32.14285752 0 0 1-32.14285752-32.14285752v-578.57142832a32.14285752 32.14285752 0 0 1 32.14285752-32.14285752h385.71428584a32.14285752 32.14285752 0 0 1 32.14285664 32.14285752v578.57142832z" fill="#231815" p-id="1569"></path><path d="M801.28571416 62h-385.71428584c-41.85 0-77.20714248 26.93571416-90.51428584 64.28571416H801.28571416a32.14285752 32.14285752 0 0 1 32.14285752 32.14285752v578.57142832a32.14285752 32.14285752 0 0 1-32.14285752 32.14285752H769.14285752v64.28571416h32.14285664c53.16428584 0 96.42857168-43.26428584 96.42857168-96.42857168v-578.57142832c0-53.16428584-43.26428584-96.42857168-96.42857168-96.42857168z" fill="#231815" p-id="1570"></path></svg>