<?xml version="1.0" standalone="no"?><!DOCTYPE svg PUBLIC "-//W3C//DTD SVG 1.1//EN" "http://www.w3.org/Graphics/SVG/1.1/DTD/svg11.dtd"><svg t="1562684117827" class="icon" viewBox="0 0 1024 1024" version="1.1" xmlns="http://www.w3.org/2000/svg" p-id="2442" xmlns:xlink="http://www.w3.org/1999/xlink" width="200" height="200"><defs><style type="text/css"></style></defs><path d="M340.288 498.13333333l69.33333333 0 0 272.71466667-69.33333333 0 0-272.71466667Z" p-id="2443"></path><path d="M476.82133333 498.13333333l69.33333334 0 0 272.71466667-69.33333334 0 0-272.71466667Z" p-id="2444"></path><path d="M613.35466667 498.13333333l69.33333333 0 0 272.71466667-69.33333333 0 0-272.71466667Z" p-id="2445"></path><path d="M796.91733333 203.50933333h-79.136V152.53333333a80.08533333 80.08533333 0 0 0-80-80h-251.2a80.08533333 80.08533333 0 0 0-80 80v50.976H225.06666667a90.77333333 90.77333333 0 0 0-90.66666667 90.66666667v24.53333333a90.82666667 90.82666667 0 0 0 68.10666667 87.81866667v436.68266666a112.128 112.128 0 0 0 112 112h391.808a112.128 112.128 0 0 0 112-112V408.08533333v-1.28a90.80533333 90.80533333 0 0 0 69.33333333-88.10666667v-24.53333333a90.77333333 90.77333333 0 0 0-90.73066667-90.656zM375.91466667 152.53333333a10.66666667 10.66666667 0 0 1 10.66666666-10.66666667h251.2a10.66666667 10.66666667 0 0 1 10.66666667 10.66666667v49.68533333h-272.53333333zM203.73333333 294.176a21.39733333 21.39733333 0 0 1 21.33333334-21.33333334h571.85066666a21.39733333 21.39733333 0 0 1 21.33333334 21.33333334v24.53333333a21.39733333 21.39733333 0 0 1-21.33333334 21.33333333h-34.64533333a69.64266667 69.64266667 0 0 0-13.29066667-1.29066666H271.79733333a69.64266667 69.64266667 0 0 0-13.29066666 1.29066666H225.06666667a21.39733333 21.39733333 0 0 1-21.33333334-21.33333333z m502.58133334 591.70133333H314.464a42.79466667 42.79466667 0 0 1-42.66666667-42.66666667V409.376h477.184v433.83466666a42.79466667 42.79466667 0 0 1-42.66666666 42.66666667z" p-id="2446"></path></svg>