<?xml version="1.0" standalone="no"?><!DOCTYPE svg PUBLIC "-//W3C//DTD SVG 1.1//EN" "http://www.w3.org/Graphics/SVG/1.1/DTD/svg11.dtd"><svg t="1561294924684" class="icon" viewBox="0 0 1024 1024" version="1.1" xmlns="http://www.w3.org/2000/svg" p-id="2052" xmlns:xlink="http://www.w3.org/1999/xlink" width="200" height="200"><defs><style type="text/css"></style></defs><path d="M349.85301333 162.14698667h-8.51968c4.69674667 0 8.51968-3.82293333 8.51968-8.51968v8.51968h324.29397334v-8.51968c0 4.64213333 3.82293333 8.51968 8.51968 8.51968h-8.51968V238.93333333h76.78634666V153.57269333c0-37.62858667-30.58346667-68.26666667-68.26666666-68.26666666h-341.33333334c-37.6832 0-68.26666667 30.63808-68.26666666 68.26666666V238.93333333h76.78634666V162.14698667zM887.46666667 238.93333333H136.53333333a34.07872 34.07872 0 0 0-34.13333333 34.13333334v34.13333333c0 4.69674667 3.82293333 8.51968 8.51968 8.51968h64.44373333l26.32362667 557.8752a68.32128 68.32128 0 0 0 68.15744 65.09909333h484.31104c36.48170667 0 66.40981333-28.61738667 68.15744-65.09909333l26.32362667-557.8752h64.44373333c4.69674667 0 8.51968-3.82293333 8.51968-8.51968v-34.13333333A34.07872 34.07872 0 0 0 887.46666667 238.93333333z m-141.55776 622.91968H278.09109333l-25.83210666-546.13333333h519.48202666l-25.83210666 546.13333333z" fill="#000000" p-id="2053"></path></svg>