<?xml version="1.0" standalone="no"?><!DOCTYPE svg PUBLIC "-//W3C//DTD SVG 1.1//EN" "http://www.w3.org/Graphics/SVG/1.1/DTD/svg11.dtd"><svg t="1561294912773" class="icon" viewBox="0 0 1024 1024" version="1.1" xmlns="http://www.w3.org/2000/svg" p-id="1814" xmlns:xlink="http://www.w3.org/1999/xlink" width="200" height="200"><defs><style type="text/css"></style></defs><path d="M809.61713193 87.59806016c-27.53775791-29.11531289-72.36412734-29.11531289-99.89692471 0L653.08698037 147.78326533l133.14959736 141.13658936 56.63818829-60.16536211c27.8403706-29.13019541 27.8403706-76.48164492 0-105.61680088l-33.25763409-35.53963154z m-183.4130751 88.34307099l-370.62121025 393.67930781V577.92988672h32.00253574v32.00749628h32.0074963v32.0074963h32.00749628v32.00253573h32.00253575V719.70146651l376.06823876-402.61878545-133.46709258-141.14154991zM223.57535029 603.86032373l-13.76639912 14.39642812-50.24363291 192.68989102 196.18729981-61.13273027 10.87917539-11.85150499h-15.03141856v-32.00253573h-32.00749628v-32.00749629h-32.0074963v-32.00253575h-32.00253574v-32.00749628H223.57535029v-6.08201983z m-38.41197276 297.6617795v60.47789677h666.67566974v-60.47789678H185.16337754z" p-id="1815"></path></svg>