<?xml version="1.0" standalone="no"?><!DOCTYPE svg PUBLIC "-//W3C//DTD SVG 1.1//EN" "http://www.w3.org/Graphics/SVG/1.1/DTD/svg11.dtd"><svg t="1561294918032" class="icon" viewBox="0 0 1024 1024" version="1.1" xmlns="http://www.w3.org/2000/svg" p-id="1936" xmlns:xlink="http://www.w3.org/1999/xlink" width="200" height="200"><defs><style type="text/css"></style></defs><path d="M816.91666667 525.83333333c-18.66 0-33.75 15.09-33.75 33.75 0 1.32 0.09 2.52 0.18 3.75h-0.18v322.5H138.16666667V240.83333333H490.66666667A33.72 33.72 0 1 0 490.66666667 173.33333333H138.16666667A67.44 67.44 0 0 0 70.66666667 240.83333333v645A67.44 67.44 0 0 0 138.16666667 953.33333333h645A67.44 67.44 0 0 0 850.66666667 885.83333333V563.33333333h-0.18c0.09-1.23 0.18-2.43 0.18-3.75 0-18.66-15.09-33.75-33.75-33.75z m133.77-378.48L876.34666667 73.01333333a67.77 67.77 0 0 0-95.64 0.18L408.34666667 445.55333333c-2.73 2.73-4.86 6-6.39 9.57l-93.57 220.68c-5.25 12.39-1.59 24.84 6.39 32.91s20.52 11.73 33 6.48l220.77-93.48c3.57-1.5 6.75-3.66 9.57-6.36L950.50666667 242.99333333a67.77 67.77 0 0 0 0.18-95.64z m-415.2 415.05L406.66666667 616.97333333l54.57-128.82 261.39-261.39 74.25 74.25-261.39 261.36z m367.2-367.23l-58.14 58.14-74.25-74.25 58.32-58.32 74.25 74.25-0.18 0.18z" p-id="1937"></path></svg>