<?xml version="1.0" standalone="no"?><!DOCTYPE svg PUBLIC "-//W3C//DTD SVG 1.1//EN" "http://www.w3.org/Graphics/SVG/1.1/DTD/svg11.dtd"><svg t="1561296585047" class="icon" viewBox="0 0 1024 1024" version="1.1" xmlns="http://www.w3.org/2000/svg" p-id="2232" xmlns:xlink="http://www.w3.org/1999/xlink" width="200" height="200"><defs><style type="text/css"></style></defs><path d="M958.8 401.8c0-71.9-58.4-130.3-130.3-130.3h-34c19.8-33.4 21.9-75.9 1.3-111.9-30.7-53.3-98.6-71.4-151.8-40.5l-131.7 76.4-131.6-76.4c-53.2-30.9-121.1-12.8-151.7 40.5-20.6 35.9-18.6 78.5 1 111.9h-34.5c-71.9 0-130.3 58.4-130.3 130.3 0 59.1 39.6 108.4 93.6 124.4-0.2 2.1-0.6 4-0.6 6.1v316.5c0 41.1 33.3 74.4 74.4 74.4h558.6c41.1 0 74.4-33.3 74.4-74.4V532.2c0-2.1-0.4-3.9-0.6-6 54.1-15.8 93.8-65.2 93.8-124.4z m-763.4 56c-30.8 0-55.9-25-55.9-55.9s25-55.9 55.9-55.9h279.2v111.7H195.4z m279.3 391h-242V532.2h242v316.6zM347.3 271.4l-40.8-23.7c-17.8-10.3-23.9-33-13.6-50.8s33-23.9 50.7-13.6l152.1 88H347.3z m333.6-88c17.8-10.3 40.5-4.2 50.8 13.6s4.2 40.5-13.6 50.8l-41 23.7H528.5l152.4-88.1z m110.4 665.4h-242V532.2h242v316.6z m37.2-391H549.2V346.1h279.3c30.8 0 55.9 25 55.9 55.9s-25 55.8-55.9 55.8z" p-id="2233"></path></svg>