<?xml version="1.0" standalone="no"?><!DOCTYPE svg PUBLIC "-//W3C//DTD SVG 1.1//EN" "http://www.w3.org/Graphics/SVG/1.1/DTD/svg11.dtd"><svg t="1562684111777" class="icon" viewBox="0 0 1024 1024" version="1.1" xmlns="http://www.w3.org/2000/svg" p-id="2325" xmlns:xlink="http://www.w3.org/1999/xlink" width="200" height="200"><defs><style type="text/css"></style></defs><path d="M338.048 349.248" p-id="2326"></path><path d="M521.024 82.112c-244.224 0-442.176 197.952-442.176 442.176 0 202.304 135.872 372.864 321.344 425.472 7.424-7.424 19.328-9.152 25.344-21.952 11.392-24.192 0.064-59.072 4.16-94.848-59.584 11.904-105.92-1.728-128.512-39.168-10.112-16.768-12.608-36.608-24.896-51.52-12.16-14.912-31.616-16.896-37.312-37.056 73.856-17.792 76.608 75.968 142.976 78.272 20.288 0.768 30.848-5.888 49.728-10.304 5.248-23.36 16.256-40.832 32.576-53.184l-0.896 0 0.576-0.576c-125.632-22.4-178.112-99.2-178.112-190.464 0-44.16 14.592-84.928 43.2-117.952-18.176-54.208 1.728-100.48 4.416-107.328 51.968-4.672 105.92 37.12 110.144 40.448 29.568-7.936 63.296-12.224 100.992-12.224 37.952 0 71.808 4.416 101.504 12.416 10.112-7.616 60.224-43.584 108.48-39.168 2.56 6.976 22.016 52.096 4.928 105.6 28.992 32.96 43.712 73.984 43.712 118.4 0 91.456-52.736 168.384-178.816 190.464l0.384 0.384-1.088 0c6.912 13.312 17.536 21.376 24.32 36.736 3.328 7.552 4.544 14.592 5.568 20.608 7.424 44.352-7.04 101.952 0.32 152.384 0.64 4.544 1.6 9.792 3.008 15.552 177.792-57.28 306.432-224.128 306.432-420.928C963.264 280.128 765.248 82.112 521.024 82.112z" p-id="2327"></path></svg>