<?xml version="1.0" standalone="no"?><!DOCTYPE svg PUBLIC "-//W3C//DTD SVG 1.1//EN" "http://www.w3.org/Graphics/SVG/1.1/DTD/svg11.dtd"><svg t="1561295505916" class="icon" viewBox="0 0 1024 1024" version="1.1" xmlns="http://www.w3.org/2000/svg" p-id="2578" xmlns:xlink="http://www.w3.org/1999/xlink" width="200" height="200"><defs><style type="text/css"></style></defs><path d="M905.6 437.76H520.21333333v158.4h220.16c-9.49333333 51.2-38.29333333 94.50666667-81.70666666 123.52-36.69333333 24.53333333-83.52 39.04-138.56 39.04-106.56 0-196.69333333-72-228.90666667-168.74666667-8.10666667-24.53333333-12.8-50.77333333-12.8-77.76s4.69333333-53.22666667 12.8-77.76c32.32-96.64 122.45333333-168.64 229.01333333-168.64 60.05333333 0 113.92 20.69333333 156.37333334 61.22666667l117.33333333-117.44c-70.93333333-66.13333333-163.41333333-106.66666667-273.70666667-106.66666667-159.89333333 0-298.24 91.73333333-365.54666666 225.49333334-27.73333333 55.25333333-43.52 117.76-43.52 183.89333333S126.93333333 640.85333333 154.66666667 696.10666667C221.97333333 829.86666667 360.32 921.6 520.21333333 921.6c110.50666667 0 203.09333333-36.69333333 270.72-99.2 77.33333333-71.25333333 122.02666667-176.21333333 122.02666667-300.90666667 0-29.01333333-2.56-56.85333333-7.36-83.73333333z" p-id="2579"></path></svg>