<?xml version="1.0" standalone="no"?><!DOCTYPE svg PUBLIC "-//W3C//DTD SVG 1.1//EN" "http://www.w3.org/Graphics/SVG/1.1/DTD/svg11.dtd"><svg t="1561296619759" class="icon" viewBox="0 0 1024 1024" version="1.1" xmlns="http://www.w3.org/2000/svg" p-id="2934" xmlns:xlink="http://www.w3.org/1999/xlink" width="200" height="200"><defs><style type="text/css"></style></defs><path d="M221.98784 876.23168c-45.34784 0-56.32-14.15168-56.32-57.03168V475.85792c0-30.41792 12.89216-51.30752 46.81216-51.30752 33.664 0 510.72 0.1024 616.10496 0.1024 29.44 0 40.47872 17.24928 40.47872 35.84512s0.29696 337.87392 0.29696 359.48544c0 36.97664-13.04064 56.31488-49.52064 56.31488-128.24576 0-569.99936-0.06656-597.85216-0.06656zM368.83968 295.02976c0.04096-80.32256 70.69184-145.46432 151.0144-145.62816 80.34304 0.14336 151.02464 65.28512 151.0912 145.62816v65.44896H368.83968V295.02976z m473.93792 65.44896h-102.656V300.64128c-0.0768-121.64608-98.63168-220.2624-220.26752-220.42624-121.43104 0-220.20096 98.88256-220.20096 220.42624v59.83744H191.45728c-47.45728 0-89.856 30.56128-89.856 85.15072v384.03072c0 51.61984 37.27872 110.71488 94.976 110.71488h661.56032c41.22624-0.16896 74.54208-33.65376 74.50624-74.87488V450.74944c0-49.2544-43.04384-90.27072-89.86624-90.27072z" p-id="2935"></path><path d="M512 530.54464c-19.79392 0-35.84 16.74752-35.84 37.40672v149.59104c0 20.65408 16.04608 37.39648 35.84 37.39648 19.7888 0 35.84-16.7424 35.84-37.39648v-149.59104c0-20.65408-16.0512-37.40672-35.84-37.40672" p-id="2936"></path></svg>