<?xml version="1.0" standalone="no"?><!DOCTYPE svg PUBLIC "-//W3C//DTD SVG 1.1//EN" "http://www.w3.org/Graphics/SVG/1.1/DTD/svg11.dtd"><svg t="1562293191763" class="icon" viewBox="0 0 1024 1024" version="1.1" xmlns="http://www.w3.org/2000/svg" p-id="2163" xmlns:xlink="http://www.w3.org/1999/xlink" width="200" height="200"><defs><style type="text/css"></style></defs><path d="M512 960.14705908C264.89705908 960.14705908 63.85294092 759.10294092 63.85294092 512S264.89705908 63.85294092 512 63.85294092 960.14705908 264.89705908 960.14705908 512 759.10294092 960.14705908 512 960.14705908z m0-847.05882363C292.02941182 113.08823545 113.08823545 292.02941182 113.08823545 512S292.02941182 910.91176455 512 910.91176455 910.91176455 731.97058818 910.91176455 512 731.97058818 113.08823545 512 113.08823545z" fill="#faad14" p-id="2164"></path><path d="M374.19411729 370.30294092a135.58235273 135.58235273 0 0 1 30.62647089-50.92941181 141.06176455 141.06176455 0 0 1 49.20882364-32.69117638c19.27058818-7.80882363 41.29411729-11.7 66.07058818-11.7a165.44117637 165.44117637 0 0 1 54.0264709 8.6029418 134.33823545 134.33823545 0 0 1 44.39117637 25.12058818 118.3235291 118.3235291 0 0 1 30.28235273 39.9176464c7.33235273 15.59117637 11.01176455 33.51176455 11.01176455 53.6823536 0 25.70294092-5.61176455 47.48823545-16.86176455 65.38235274a268.57058818 268.57058818 0 0 1-43.01470547 51.61764726c-14.21470547 14.21470547-25.59705908 25.35882364-34.06764726 33.37941182-8.49705908 8.04705908-14.79705908 15.96176455-18.9264709 23.74411729-4.12941182 7.78235273-6.88235273 17.33823545-8.25882364 28.56176455-1.37647089 11.25-2.30294092 18.26470547-2.75294091 39.36176455h-43.35882364c-0.45-21.09705908 0.68823545-29.59411729 3.44117637-43.83529365a134.28529453 134.28529453 0 0 1 13.42058818-38.54117637c6.19411729-11.46176455 14.45294092-22.4735291 24.77647091-33.03529453s22.81764727-22.4735291 37.50882363-35.78823545c12.83823545-11.91176455 23.50588271-25.22647089 32.00294091-39.91764639 8.49705908-14.66470547 12.73235273-30.97058818 12.73235274-48.86470635 0-13.76470547-2.64705908-26.36470547-7.91470547-37.85294091a88.30588271 88.30588271 0 0 0-21.33529453-29.25 100.45588271 100.45588271 0 0 0-31.31470547-18.9264709 104.82352911 104.82352911 0 0 0-37.85294092-6.88235273c-18.34411729 0-34.65 3.22941182-48.86470635 9.63529365-14.21470547 6.43235273-25.94117637 15.24705908-35.1 26.49705908a113.92941182 113.92941182 0 0 0-20.64705907 39.5735291A130.42058818 130.42058818 0 0 0 407.22941182 432.58823545h-43.35882364c0-24.3264709 3.44117636-42.32647089 10.32352911-62.28529453zM485.68823545 697.29411729H538.47058818v52.94117724h-52.78235273v-52.94117724z" fill="#faad14" p-id="2165"></path></svg>