<?xml version="1.0" standalone="no"?><!DOCTYPE svg PUBLIC "-//W3C//DTD SVG 1.1//EN" "http://www.w3.org/Graphics/SVG/1.1/DTD/svg11.dtd"><svg t="1584883727390" class="icon" viewBox="0 0 1024 1024" version="1.1" xmlns="http://www.w3.org/2000/svg" p-id="3397" xmlns:xlink="http://www.w3.org/1999/xlink" width="200" height="200"><defs><style type="text/css"></style></defs><path d="M962.296683 212.608747l1e-8 3.368724c-149.228743 195.841364-296.332079 393.368112-445.38379001 589.295434l-2.920516 0c-148.869562-196.022489-295.709909-393.635195-445.11568299-589.122495l-1e-8-3.541663L962.296683 212.608747z m-54.39998101 28.039613c-14.331403-1.935072-28.839839-1.676176-43.25617599-1.67617499-247.149936 1.24434-494.3889-1.675152-741.447763 1.50323699 111.188358 152.675238 226.801493 302.430984 339.937203 453.792296 18.845207 21.043269 31.66928 51.036373 54.846142 66.161863C647.655609 586.962807 780.605597 415.628604 907.89670199 240.64836z" fill="#2c2c2c" p-id="3398"></path><path d="M907.89670199 240.64836c-127.291105 174.980243-260.24006901 346.313423-389.92059399 519.782244-23.176862-15.125489-36.000935-45.118594-54.846142-66.161862-113.136733-151.361313-228.748844-301.117059-339.937203-453.792297 247.058862-3.178389 494.297826-0.258896 741.447763-1.50323699 14.416338 0 28.924773-0.258896 43.25617599 1.67515199z" fill="#2c2c2c" p-id="3399"></path></svg>