<?xml version="1.0" standalone="no"?><!DOCTYPE svg PUBLIC "-//W3C//DTD SVG 1.1//EN" "http://www.w3.org/Graphics/SVG/1.1/DTD/svg11.dtd"><svg t="1562679282298" class="icon" viewBox="0 0 1025 1024" version="1.1" xmlns="http://www.w3.org/2000/svg" p-id="3652" xmlns:xlink="http://www.w3.org/1999/xlink" width="200.1953125" height="200"><defs><style type="text/css"></style></defs><path d="M512.011 962C263.886 962 62 760.16 62 512.011S263.886 62 512.011 62s450.011 201.886 450.011 450.011S760.16 962 512.012 962z m0-845.6C293.873 116.4 116.4 293.873 116.4 512.01S293.873 907.623 512.01 907.623 907.623 730.149 907.623 512.01 730.149 116.4 512.01 116.4z" p-id="3653"></path><path d="M455.836 708.367a2.168 2.168 0 1 0 110.912 0 2.168 2.168 0 1 0-110.912 0zM544.359 556.07c0 17.849-14.477 32.326-32.325 32.326-17.849 0-32.325-14.477-32.325-32.326V270.405c0-17.849 14.476-32.303 32.325-32.303 17.848 0 32.325 14.477 32.325 32.303V556.07z" p-id="3654"></path></svg>