<?xml version="1.0" standalone="no"?><!DOCTYPE svg PUBLIC "-//W3C//DTD SVG 1.1//EN" "http://www.w3.org/Graphics/SVG/1.1/DTD/svg11.dtd"><svg t="1562293179075" class="icon" viewBox="0 0 1025 1024" version="1.1" xmlns="http://www.w3.org/2000/svg" p-id="2031" xmlns:xlink="http://www.w3.org/1999/xlink" width="200.1953125" height="200"><defs><style type="text/css"></style></defs><path d="M512.01123945 962C263.88575527 962 62 760.15920254 62 512.01123945S263.88575527 62 512.01123945 62s450.01123945 201.88575527 450.01123946 450.01123945S760.15920254 962 512.01123945 962zM512.01123945 116.39967998c-218.13822247 0-395.61155947 177.47333701-395.61155947 395.61155947s177.47333701 395.61155947 395.61155947 395.61155948 395.61155947-177.47333701 395.61155948-395.61155948S730.14946192 116.39967998 512.01123945 116.39967998z" fill="#faad14" p-id="2032"></path><path d="M511.29190479 708.36711084m-55.45620264 0a2.16826172 2.16826172 0 1 0 110.91240615 0 2.16826172 2.16826172 0 1 0-110.91240615 0Z" fill="#faad14" p-id="2033"></path><path d="M544.35881797 556.07048457c0 17.84848974-14.47660898 32.32509961-32.32509961 32.32509961l0 0c-17.84848974 0-32.32509961-14.47660898-32.32509961-32.32509961L479.70861963 270.40472597c0-17.84848974 14.47660898-32.30261982 32.32509961-32.30261982l0 0c17.84848974 0 32.32509961 14.47660898 32.32509961 32.30261983L544.35881797 556.07048457z" fill="#faad14" p-id="2034"></path></svg>