<?xml version="1.0" standalone="no"?><!DOCTYPE svg PUBLIC "-//W3C//DTD SVG 1.1//EN" "http://www.w3.org/Graphics/SVG/1.1/DTD/svg11.dtd"><svg t="1561295456436" class="icon" viewBox="0 0 1024 1024" version="1.1" xmlns="http://www.w3.org/2000/svg" p-id="1764" xmlns:xlink="http://www.w3.org/1999/xlink" width="200" height="200"><defs><style type="text/css"></style></defs><path d="M471.44705908 894.39411729l490.55294092 67.60588271 0-425.11764727-490.55294092 0 0 357.51176456zM524.38823545 589.82352911l384.67058818 0 1e-8 311.45294091-384.67058819-53.04705908 0-258.40588272zM62 838.17058818l368.84117636 50.77058818 1e-8-352.05882363-368.84117637 0 0 301.28823545zM114.94117637 589.82352911l262.95882363 0 0 238.39411727-262.95882364-36.21176454 0-202.18235273zM62 491.45882363l368.84117636 1e-8 1e-8-356.40000001-368.84117637 50.77058819 0 305.62941182zM114.94117637 231.94117637l262.95882363-36.21176455 0 242.73529453-262.95882364 0 0-206.52352911zM471.44705908 129.60588271l0 361.85294092 490.55294092 0 0-429.45882363-490.55294092 67.60588271zM909.05882363 438.51764727l-384.67058818 0 0-262.74705909 384.67058818-53.04705908 1e-8 315.79411728z" p-id="1765"></path></svg>