<?xml version="1.0" standalone="no"?><!DOCTYPE svg PUBLIC "-//W3C//DTD SVG 1.1//EN" "http://www.w3.org/Graphics/SVG/1.1/DTD/svg11.dtd"><svg t="1570093717279" class="icon" viewBox="0 0 1024 1024" version="1.1" xmlns="http://www.w3.org/2000/svg" p-id="4645" xmlns:xlink="http://www.w3.org/1999/xlink" width="200" height="200"><defs><style type="text/css"></style></defs><path d="M910.353 882.116c-2.015-82.491-27.665-160.838-74.165-226.585-43.21-61.087-102.329-108.581-171.525-137.925 54.515-43.828 86.7-112.293 86.7-185.681 0-64.537-25.172-124.96-70.885-170.119-45.234-44.681-105.084-69.29-168.534-69.29-64.538 0-124.94 25.172-170.1 70.884-44.681 45.234-69.29 105.075-69.29 168.516 0 73.368 32.193 141.834 86.69 185.68-69.6 29.542-129.253 77.738-173.072 139.979-47.513 67.49-72.628 146.597-72.628 228.75-0.047 11.54 4.612 22.837 12.769 30.994 8.118 8.11 19.33 12.75 30.75 12.75h0.365c11.475 0 22.706-4.64 30.816-12.76 8.165-8.156 12.815-19.453 12.769-30.956-0.01-83.175 32.39-161.953 91.228-221.831 59.043-60.094 137.072-93.188 219.703-93.188 171.46 0 310.95 139.491 310.95 310.913-0.047 11.54 4.603 22.837 12.76 30.994 8.109 8.118 19.33 12.759 30.75 12.759h0.374c11.475 0 22.697-4.64 30.806-12.76 8.157-8.156 12.807-19.462 12.77-30.993v-0.131zM667.981 331.925c0 86.034-69.993 156.038-156.037 156.038-86.035 0-156.028-69.994-156.028-156.038 0-86.034 69.993-156.028 156.028-156.028 86.044 0 156.037 69.994 156.037 156.028z" p-id="4646"></path></svg>