<?xml version="1.0" standalone="no"?><!DOCTYPE svg PUBLIC "-//W3C//DTD SVG 1.1//EN" "http://www.w3.org/Graphics/SVG/1.1/DTD/svg11.dtd"><svg t="1561296578312" class="icon" viewBox="0 0 1024 1024" version="1.1" xmlns="http://www.w3.org/2000/svg" p-id="2116" xmlns:xlink="http://www.w3.org/1999/xlink" width="200" height="200"><defs><style type="text/css"></style></defs><path d="M866.03184863 643.72871094c-29.86347656-29.50488281-60.72539063-60.01699219-60.72539062-204.05214844 0-145.94414063-107.15273437-267.31757813-246.91464844-289.62070312A55.97402344 55.97402344 0 0 0 568.25313769 118.25c0-31.06582031-25.18417969-56.25-56.25-56.25s-56.25 25.18417969-56.25 56.25a55.9828125 55.9828125 0 0 0 9.85957031 31.80761719C325.85255175 172.36074219 218.69981739 293.73417969 218.69981739 439.67832031c0 144.02285156-30.85136719 174.53671875-60.72011719 204.04335938C73.4359502 727.22832031 135.34962208 849.5 235.88419239 849.5H399.50313769c0 62.13164063 50.36835937 112.5 112.5 112.5 62.13164063 0 112.5-50.36835937 112.5-112.5h163.6171875c100.52929688 0 162.44824219-122.31386719 77.91152344-205.77128906zM512.0031377 891.6875c-23.26289062 0-42.1875-18.92460938-42.1875-42.1875h84.37499999c0 23.26289062-18.92460938 42.1875-42.1875 42.1875z m276.13828125-126.5625H235.85079394c-29.46445313 0-44.18261719-35.84179688-23.43867187-56.58574219 50.24707031-50.24707031 90.66269531-97.95234375 90.66269532-268.8609375C303.07481739 324.47480469 396.79962207 230.75 512.0031377 230.75s208.92832031 93.72480469 208.9283203 208.92832031c0 171.65039063 40.81816406 218.97773437 90.64687501 268.8609375C832.41368457 729.37285156 817.48106739 765.125 788.14141894 765.125z" fill="" p-id="2117"></path></svg>