<?xml version="1.0" standalone="no"?><!DOCTYPE svg PUBLIC "-//W3C//DTD SVG 1.1//EN" "http://www.w3.org/Graphics/SVG/1.1/DTD/svg11.dtd"><svg t="1563800306563" class="icon" viewBox="0 0 1024 1024" version="1.1" xmlns="http://www.w3.org/2000/svg" p-id="4928" xmlns:xlink="http://www.w3.org/1999/xlink" width="200" height="200"><defs><style type="text/css"></style></defs><path d="M546.09 507.5l139.774-139.91A27.273 27.273 0 0 0 647.273 329L507.5 468.91 367.59 329.135A27.273 27.273 0 0 0 329 367.727L468.91 507.5 329.135 647.273a27.273 27.273 0 0 0 38.591 38.59L507.5 546.092l139.773 139.773a27.273 27.273 0 0 0 38.59-38.591z m-32.045 429.273a422.727 422.727 0 1 1 422.728-422.728 422.727 422.727 0 0 1-422.728 422.728z" p-id="4929"></path></svg>