<?xml version="1.0" standalone="no"?><!DOCTYPE svg PUBLIC "-//W3C//DTD SVG 1.1//EN" "http://www.w3.org/Graphics/SVG/1.1/DTD/svg11.dtd"><svg t="1562679292882" class="icon" viewBox="0 0 1024 1024" version="1.1" xmlns="http://www.w3.org/2000/svg" p-id="3902" xmlns:xlink="http://www.w3.org/1999/xlink" width="200" height="200"><defs><style type="text/css"></style></defs><path d="M510 62C262 62 62 264 62 512s200 450 448 450 448-202 448-450S758 62 510 62z m0 840c-214 0-388-174-388-390s174-390 388-390 388 174 388 390-174 390-388 390z" p-id="3903"></path><path d="M682 342c-12-12-30-12-42 0L512 470 384 342c-12-12-30-12-42 0s-12 30 0 42l128 128-128 128c-12 12-12 30 0 42 6 6 14 8 22 8s16-2 22-8l128-128 128 128c6 6 14 8 22 8s16-2 22-8c12-12 12-30 0-42L554 512l128-128c12-12 12-30 0-42z" p-id="3904"></path></svg>