<?xml version="1.0" standalone="no"?><!DOCTYPE svg PUBLIC "-//W3C//DTD SVG 1.1//EN" "http://www.w3.org/Graphics/SVG/1.1/DTD/svg11.dtd"><svg t="1561294691983" class="icon" viewBox="0 0 1024 1024" version="1.1" xmlns="http://www.w3.org/2000/svg" p-id="3308" xmlns:xlink="http://www.w3.org/1999/xlink" width="200" height="200"><defs><style type="text/css"></style></defs><path d="M798.72 249.06c-15.929-34.816-38.57-66.105-67.47-92.843C672.54 101.717 594.603 71.68 512 71.68s-160.54 30.037-219.25 84.423c-28.9 26.852-51.541 58.027-67.47 92.957-16.612 36.408-25.031 74.98-25.031 114.801v30.72a12.722 12.722 0 0 0 12.743 12.743h61.44a12.722 12.722 0 0 0 12.743-12.743v-30.72c0-113.209 100.807-205.255 224.825-205.255s224.825 92.046 224.825 205.255c0 46.422-16.498 90.112-47.787 126.521-30.947 36.068-74.638 61.895-122.994 72.818-27.648 6.258-52.565 21.845-70.2 44.146-17.522 22.073-27.193 49.834-27.193 78.051v35.727a12.722 12.722 0 0 0 12.743 12.743h61.44a12.722 12.722 0 0 0 12.743-12.743v-35.727c0-17.863 12.402-33.564 29.582-37.433 66.446-15.018 126.749-50.858 169.87-100.92 21.732-25.373 38.685-53.59 50.404-84.196 12.174-31.744 18.318-65.08 18.318-98.987 0-39.822-8.42-78.506-25.031-114.801zM512 824.889c-35.157 0-63.716 28.558-63.716 63.715S476.843 952.32 512 952.32s63.716-28.558 63.716-63.716S547.157 824.89 512 824.89z" p-id="3309"></path></svg>