<?xml version="1.0" standalone="no"?><!DOCTYPE svg PUBLIC "-//W3C//DTD SVG 1.1//EN" "http://www.w3.org/Graphics/SVG/1.1/DTD/svg11.dtd"><svg t="1562679288246" class="icon" viewBox="0 0 1024 1024" version="1.1" xmlns="http://www.w3.org/2000/svg" p-id="3777" xmlns:xlink="http://www.w3.org/1999/xlink" width="200" height="200"><defs><style type="text/css"></style></defs><path d="M512 960.147C264.897 960.147 63.853 759.103 63.853 512S264.897 63.853 512 63.853 960.147 264.897 960.147 512 759.103 960.147 512 960.147z m0-847.059c-219.97 0-398.912 178.941-398.912 398.912S292.03 910.912 512 910.912 910.912 731.97 910.912 512 731.97 113.088 512 113.088z" p-id="3778"></path><path d="M374.194 370.303a135.582 135.582 0 0 1 30.627-50.93 141.062 141.062 0 0 1 49.208-32.69c19.271-7.81 41.295-11.7 66.071-11.7a165.441 165.441 0 0 1 54.026 8.602 134.338 134.338 0 0 1 44.392 25.12 118.324 118.324 0 0 1 30.282 39.919c7.332 15.59 11.012 33.511 11.012 53.682 0 25.703-5.612 47.488-16.862 65.382a268.57 268.57 0 0 1-43.015 51.618c-14.214 14.215-25.597 25.359-34.067 33.38-8.497 8.046-14.797 15.961-18.927 23.743-4.13 7.783-6.882 17.339-8.259 28.562-1.376 11.25-2.303 18.265-2.753 39.362h-43.358c-0.45-21.097 0.688-29.594 3.44-43.835a134.285 134.285 0 0 1 13.421-38.542c6.194-11.461 14.453-22.473 24.777-33.035s22.817-22.473 37.509-35.788c12.838-11.912 23.506-25.227 32.003-39.918 8.497-14.664 12.732-30.97 12.732-48.864 0-13.765-2.647-26.365-7.915-37.853a88.306 88.306 0 0 0-21.335-29.25 100.456 100.456 0 0 0-31.315-18.927 104.824 104.824 0 0 0-37.853-6.882c-18.344 0-34.65 3.23-48.864 9.635-14.215 6.432-25.942 15.247-35.1 26.497a113.93 113.93 0 0 0-20.647 39.574 130.42 130.42 0 0 0-6.195 45.423h-43.358c0-24.326 3.44-42.326 10.323-62.285z m111.494 326.991h52.783v52.941h-52.783v-52.94z" p-id="3779"></path></svg>