<?xml version="1.0" standalone="no"?><!DOCTYPE svg PUBLIC "-//W3C//DTD SVG 1.1//EN" "http://www.w3.org/Graphics/SVG/1.1/DTD/svg11.dtd"><svg t="1562684132705" class="icon" viewBox="0 0 1068 1024" version="1.1" xmlns="http://www.w3.org/2000/svg" p-id="2677" xmlns:xlink="http://www.w3.org/1999/xlink" width="208.59375" height="200"><defs><style type="text/css"></style></defs><path d="M534.95652219 320c-102.26086969 0-185.73913031 85.56521719-185.73913125 192s83.47826062 192 185.73913125 192S720.6956525 616.34782625 720.6956525 512c0-106.43478281-83.47826062-192-185.73913031-192z m0 306.78260906c-60.52173938 0-112.6956525-52.17391312-112.6956525-116.86956562 0-62.60869594 52.17391312-116.86956563 112.6956525-116.86956563 60.52173938 0 112.6956525 52.17391312 112.69565156 116.86956563 0 64.6956525-52.17391312 116.86956563-112.69565156 116.86956562z" p-id="2678"></path><path d="M1006.60869594 428.52173938c-6.26086969-39.65217375-35.47826062-68.86956563-77.21739188-73.04347875-25.04347781-4.17391313-52.17391312-20.86956562-64.69565156-43.82608688-12.52173937-22.95652219-12.52173937-52.17391312-4.17391312-79.3043475 16.6956525-35.47826062 6.26086969-79.3043475-22.95652219-106.43478281-41.73913031-33.39130406-87.65217375-60.52173938-135.65217375-79.3043475-35.47826062-12.52173937-77.21739094 0-100.17391313 33.39130406-16.6956525 22.95652219-41.73913031 35.47826062-70.95652125 35.47826063-25.04347781 0-52.17391312-12.52173937-66.78260906-35.47826063C438.95652219 46.60869594 397.21739094 34.08695656 361.73913031 46.60869594c-48 20.86956562-93.91304344 45.91304344-135.65217375 79.3043475-31.3043475 27.13043438-41.73913031 68.86956563-25.04347875 108.52173937 12.52173937 27.13043438 10.43478281 56.34782625-4.17391218 79.3043475-12.52173937 22.95652219-35.47826062 39.65217375-64.6956525 43.82608688-37.56521719 4.17391313-70.95652219 33.39130406-77.21739094 73.04347875 2.08695656 27.13043438-2.08695656 54.26086969-2.08695657 81.39130406 0 27.13043438 4.17391313 56.34782625 12.52173844 83.47826062 6.26086969 39.65217375 35.47826062 68.86956563 77.21739188 73.04347875 25.04347781 4.17391313 52.17391312 20.86956562 64.69565156 43.82608688 12.52173937 20.86956562 12.52173937 50.08695656 2.08695656 77.21739094-16.6956525 35.47826062-6.26086969 79.3043475 22.95652219 106.43478281 41.73913031 33.39130406 87.65217375 60.52173938 135.65217375 79.3043475 10.43478281 4.17391313 18.78260906 6.26086969 29.21739094 6.26086969 25.04347781 0 54.26086969-12.52173937 66.78260906-43.82608688 16.6956525-22.95652219 41.73913031-35.47826062 70.95652219-35.47826062 25.04347781 0 52.17391312 12.52173937 66.78260812 35.47826062 25.04347781 33.39130406 66.78260906 45.91304344 102.26086969 33.39130406 48-20.86956562 96-45.91304344 135.65217375-79.3043475 29.21739094-22.95652219 37.56521719-68.86956563 22.95652219-106.43478281-12.52173937-27.13043438-10.43478281-56.34782625 4.17391312-79.3043475 12.52173937-22.95652219 35.47826062-39.65217375 64.69565157-43.82608687 37.56521719-4.17391313 70.95652219-33.39130406 77.21739187-73.04347875 4.17391313-27.13043438 6.26086969-52.17391312 6.26086969-79.3043475-2.08695656-25.04347781-6.26086969-54.26086969-8.34782625-81.39130407z m-66.78260906 146.08695656c0 6.26086969-6.26086969 10.43478281-12.52173938 10.43478187-52.17391312 6.26086969-96 35.47826062-121.04347781 83.47826157-25.04347781 43.82608688-29.21739094 100.17391312-6.26086969 148.17391312 0 6.26086969 0 12.52173937-4.17391312 16.69565156-31.3043475 29.21739094-70.95652219 52.17391312-112.6956525 68.86956563-6.26086969 4.17391313-12.52173937-4.17391313-16.69565157-6.26086969-29.21739094-43.82608688-77.21739094-66.78260906-129.391305-66.78260906s-100.17391312 27.13043438-129.39130406 68.86956562c-4.17391313 4.17391313-10.43478281 10.43478281-16.69565156 6.26086969-41.73913031-16.6956525-79.3043475-35.47826062-114.78260907-66.78260906-6.26086969-4.17391313-6.26086969-10.43478281-4.17391312-16.69565156 22.95652219-50.08695656 18.78260906-102.26086969-6.26086969-148.17391313-25.04347781-45.91304344-70.95652219-77.21739094-121.04347781-83.47826156-6.26086969 0-12.52173937-4.17391313-12.52173937-10.43478188-4.17391313-22.95652219-6.26086969-45.91304344-6.26086969-68.86956562 0-22.95652219 4.17391313-43.82608688 6.26086969-66.78260907 0-6.26086969 6.26086969-10.43478281 12.52173937-10.43478187 52.17391312-6.26086969 96-35.47826062 121.04347781-83.47826156 25.04347781-43.82608688 29.21739094-100.17391312 6.26086969-148.17391313-4.17391313-4.17391313-4.17391313-12.52173937 0-16.69565156C309.56521719 157.21739094 349.21739094 136.34782625 390.95652219 117.56521719h4.17391218c4.17391313 0 6.26086969 4.17391313 12.52173938 6.26086969 29.21739094 43.82608688 77.21739094 66.78260906 129.39130406 66.78260906s100.17391312-27.13043438 129.391305-68.86956563c4.17391313-4.17391313 10.43478281-10.43478281 16.69565157-6.26086968 41.73913031 16.6956525 79.3043475 35.47826062 114.78260906 66.78260906 6.26086969 4.17391313 6.26086969 10.43478281 4.17391312 16.6956525-22.95652219 50.08695656-18.78260906 102.26086969 6.26086969 148.17391219 25.04347781 45.91304344 70.95652219 77.21739094 121.04347781 83.47826156 6.26086969 0 12.52173937 4.17391313 12.52173938 10.43478187 4.17391313 22.95652219 6.26086969 45.91304344 6.26086969 68.86956563-2.08695656 20.86956562-6.26086969 41.73913031-8.34782625 64.6956525z" p-id="2679"></path></svg>