<?xml version="1.0" standalone="no"?><!DOCTYPE svg PUBLIC "-//W3C//DTD SVG 1.1//EN" "http://www.w3.org/Graphics/SVG/1.1/DTD/svg11.dtd"><svg t="1561296590365" class="icon" viewBox="0 0 1024 1024" version="1.1" xmlns="http://www.w3.org/2000/svg" p-id="2348" xmlns:xlink="http://www.w3.org/1999/xlink" width="200" height="200"><defs><style type="text/css"></style></defs><path d="M966.4 455.25333333l-31.57333333-333.44c-1.6-17.28-15.36-30.93333333-32.64-32.64L568.74666667 57.6h-0.42666667c-3.41333333 0-6.08 1.06666667-8.10666667 3.09333333L60.69333333 560.21333333c-4.16 4.16-4.16 10.88 0 15.04l388.05333334 388.05333334c2.02666667 2.02666667 4.69333333 3.09333333 7.57333333 3.09333333s5.54666667-1.06666667 7.57333333-3.09333333l499.52-499.52c2.13333333-2.24 3.2-5.33333333 2.98666667-8.53333334zM456.21333333 856.21333333L167.78666667 567.78666667 594.13333333 141.44 857.6 166.4l24.96 263.46666667-426.34666667 426.34666666zM691.2 238.93333333c-51.73333333 0-93.86666667 42.13333333-93.86666667 93.86666667s42.13333333 93.86666667 93.86666667 93.86666667 93.86666667-42.13333333 93.86666667-93.86666667-42.13333333-93.86666667-93.86666667-93.86666667z m0 128c-18.88 0-34.13333333-15.25333333-34.13333333-34.13333333s15.25333333-34.13333333 34.13333333-34.13333333 34.13333333 15.25333333 34.13333333 34.13333333-15.25333333 34.13333333-34.13333333 34.13333333z" p-id="2349"></path></svg>