<?xml version="1.0" standalone="no"?><!DOCTYPE svg PUBLIC "-//W3C//DTD SVG 1.1//EN" "http://www.w3.org/Graphics/SVG/1.1/DTD/svg11.dtd"><svg t="1561296608941" class="icon" viewBox="0 0 1024 1024" version="1.1" xmlns="http://www.w3.org/2000/svg" p-id="2696" xmlns:xlink="http://www.w3.org/1999/xlink" width="200" height="200"><defs><style type="text/css"></style></defs><path d="M516.28571469 684.5c0 4.71428531 3.64285688 8.57142844 8.03571375 8.57142844h198.21428625c4.39285687 0 8.03571469-3.85714312 8.03571375-8.57142844v-51.42857156c0-4.71428531-3.64285688-8.57142844-8.03571375-8.57142844h-198.21428625c-4.39285687 0-8.03571469 3.85714312-8.03571375 8.57142844v51.42857156z m-208.82142938 6.53571469l205.71428625-172.5c4.07142844-3.42857156 4.07142844-9.75 0-13.17857157l-205.71428625-172.39285781A8.51785687 8.51785687 0 0 0 293.42857156 339.5v67.17857156c0 2.57142844 1.07142844 4.92857156 3.10714313 6.53571375L414.17857156 512l-117.64285687 98.78571469a8.67857156 8.67857156 0 0 0-3.10714313 6.53571375V684.5c0 7.28571469 8.46428531 11.25 14.03571375 6.53571469zM906.28571469 83.42857156H117.71428531c-18.96428531 0-34.28571469 15.32142844-34.28571375 34.28571375v788.57142938c0 18.96428531 15.32142844 34.28571469 34.28571375 34.28571375h788.57142938c18.96428531 0 34.28571469-15.32142844 34.28571375-34.28571375V117.71428531c0-18.96428531-15.32142844-34.28571469-34.28571375-34.28571375z m-42.85714313 780H160.57142844V160.57142844h702.85714312v702.85714312z" p-id="2697"></path></svg>