<?xml version="1.0" encoding="UTF-8"?>
<svg width="116px" height="175px" viewBox="0 0 116 175" version="1.1" xmlns="http://www.w3.org/2000/svg" xmlns:xlink="http://www.w3.org/1999/xlink">
    <!-- Generator: Sketch 58 (84663) - https://sketch.com -->
    <title>triangle-down</title>
    <desc>Created with Sketch.</desc>
    <g id="页面-1" stroke="none" stroke-width="1" fill="none" fill-rule="evenodd">
        <g id="triangle-down" transform="translate(57.881043, 87.333993) rotate(-90.000000) translate(-57.881043, -87.333993) translate(-29.618957, 29.333993)" fill="#2C2C2C" fill-rule="nonzero">
            <path d="M174.667321,0.118895898 L174.667321,0.776849805 C145.521082,39.0271162 116.789962,77.6065592 87.6782994,115.873614 L87.1078861,115.873614 C58.0317998,77.5879719 29.3520445,38.9917402 0.171229297,0.810626953 L0.171229297,0.118895898 L174.667321,0.118895898 Z M164.042325,5.59538281 C161.243222,5.21743906 158.409544,5.26800469 155.593853,5.26800488 C107.322381,5.51104004 59.0335207,4.94082676 10.7798365,5.56160586 C32.4963127,35.3809883 55.0770031,64.6301574 77.1738215,94.1929137 C80.854526,98.3029271 83.3592277,104.160955 87.8859586,107.115153 C113.213986,73.2349232 139.180781,39.7712117 164.042325,5.59538281 Z" id="形状"></path>
            <path d="M164.042325,5.59538281 C139.180781,39.7712115 113.214186,73.2347232 87.8859586,107.115352 C83.3592277,104.161155 80.854526,98.303127 77.1738215,94.1931137 C55.0768033,64.6303572 32.4963129,35.3811881 10.7798365,5.56180566 C59.0335205,4.94102656 107.322381,5.51124004 155.593853,5.26820469 C158.409544,5.26820469 161.243222,5.21763906 164.042325,5.59538281 L164.042325,5.59538281 Z" id="路径"></path>
        </g>
    </g>
</svg>