<?xml version="1.0" standalone="no"?><!DOCTYPE svg PUBLIC "-//W3C//DTD SVG 1.1//EN" "http://www.w3.org/Graphics/SVG/1.1/DTD/svg11.dtd"><svg t="1562684104185" class="icon" viewBox="0 0 1024 1024" version="1.1" xmlns="http://www.w3.org/2000/svg" p-id="2209" xmlns:xlink="http://www.w3.org/1999/xlink" width="200" height="200"><defs><style type="text/css"></style></defs><path d="M398.22222187 147.91111147C209.80622187 147.91111147 56.88888853 270.336 56.88888853 420.97777813 56.88888853 506.99377813 106.04088853 582.99733333 183.40977813 633.0595552L147.91111147 739.5555552 261.68888853 671.28888853C302.19377813 685.39733333 346.79466667 694.0444448 394.12622187 694.0444448 382.29333333 665.3724448 375.46666667 634.88 375.46666667 603.02222187 375.46666667 452.3804448 517.9164448 329.9555552 694.0444448 329.9555552 702.6915552 329.9555552 711.33866667 329.9555552 719.53066667 331.32088853 673.10933333 224.82488853 547.49866667 147.91111147 398.22222187 147.91111147M261.68888853 261.68888853C286.72 261.68888853 307.2 282.16888853 307.2 307.2 307.2 332.23111147 286.72 352.71111147 261.68888853 352.71111147 236.65777813 352.71111147 216.17777813 332.23111147 216.17777813 307.2 216.17777813 282.16888853 236.65777813 261.68888853 261.68888853 261.68888853M489.2444448 261.68888853C514.2755552 261.68888853 534.7555552 282.16888853 534.7555552 307.2 534.7555552 332.23111147 514.2755552 352.71111147 489.2444448 352.71111147 464.21333333 352.71111147 443.73333333 332.23111147 443.73333333 307.2 443.73333333 282.16888853 464.21333333 261.68888853 489.2444448 261.68888853M694.0444448 375.46666667C543.40266667 375.46666667 420.97777813 477.4115552 420.97777813 603.02222187 420.97777813 728.63288853 543.40266667 830.57777813 694.0444448 830.57777813 724.53688853 830.57777813 753.664 826.93688853 780.97066667 819.2L876.08888853 876.08888853 847.872 790.98311147C919.3244448 749.568 967.11111147 680.84622187 967.11111147 603.02222187 967.11111147 477.4115552 844.68622187 375.46666667 694.0444448 375.46666667M603.02222187 489.2444448C628.05333333 489.2444448 648.53333333 509.7244448 648.53333333 534.7555552 648.53333333 559.78666667 628.05333333 580.26666667 603.02222187 580.26666667 577.99111147 580.26666667 557.51111147 559.78666667 557.51111147 534.7555552 557.51111147 509.7244448 577.99111147 489.2444448 603.02222187 489.2444448M785.06666667 489.2444448C810.09777813 489.2444448 830.57777813 509.7244448 830.57777813 534.7555552 830.57777813 559.78666667 810.09777813 580.26666667 785.06666667 580.26666667 760.0355552 580.26666667 739.5555552 559.78666667 739.5555552 534.7555552 739.5555552 509.7244448 760.0355552 489.2444448 785.06666667 489.2444448Z" p-id="2210"></path></svg>